<svg width="94" height="30" viewBox="0 0 94 30" fill="none" xmlns="http://www.w3.org/2000/svg">
<path d="M86.811 20.8247C85.899 20.8247 85.155 20.4647 84.579 19.7447C84.019 19.0247 83.739 18.0807 83.739 16.9127C83.739 15.6327 84.035 14.4247 84.627 13.2887C85.219 12.1367 86.003 11.2167 86.979 10.5287C87.971 9.82466 89.019 9.47266 90.123 9.47266C90.475 9.47266 90.707 9.54466 90.819 9.68866C90.947 9.81666 91.051 10.0567 91.131 10.4087C91.435 10.3447 91.771 10.3127 92.139 10.3127C92.523 10.3127 92.819 10.4087 93.027 10.6007C93.235 10.7927 93.339 11.0647 93.339 11.4167C93.339 11.7847 93.259 12.4247 93.099 13.3367C92.923 14.3127 92.787 15.2487 92.691 16.1447C92.595 17.0247 92.547 18.0167 92.547 19.1207C92.547 19.7287 92.419 20.1687 92.163 20.4407C91.923 20.6967 91.523 20.8247 90.963 20.8247C90.419 20.8247 90.011 20.6967 89.739 20.4407C89.483 20.1687 89.355 19.7367 89.355 19.1447L89.379 18.7607C88.883 20.1367 88.027 20.8247 86.811 20.8247ZM87.747 18.4007C88.195 18.4007 88.603 18.0887 88.971 17.4647C89.339 16.8407 89.667 15.7287 89.955 14.1287L90.411 11.7047C89.755 11.7207 89.147 11.9767 88.587 12.4727C88.027 12.9527 87.579 13.5927 87.243 14.3927C86.907 15.1927 86.739 16.0407 86.739 16.9367C86.739 17.4167 86.827 17.7847 87.003 18.0407C87.195 18.2807 87.443 18.4007 87.747 18.4007Z" fill="#FE576B"/>
<path d="M85.089 15.4007C85.297 15.4007 85.457 15.5047 85.569 15.7127C85.697 15.9047 85.761 16.1527 85.761 16.4567C85.761 16.8247 85.705 17.1127 85.593 17.3207C85.481 17.5287 85.305 17.7127 85.065 17.8727C83.689 18.8007 82.681 19.4887 82.041 19.9367L80.505 20.9687C79.897 24.2807 80.097 24.8807 79.105 26.7687C78.129 28.6727 76.881 29.6247 75.361 29.6247C74.545 29.6247 73.881 29.3687 73.369 28.8567C72.857 28.3607 72.601 27.7047 72.601 26.8887C72.601 23.2236 75.5598 22.2907 77.985 20.4167L78.129 19.4807C77.857 19.9127 77.497 20.2487 77.049 20.4887C76.617 20.7127 76.185 20.8247 75.753 20.8247C74.761 20.8247 73.969 20.4647 73.377 19.7447C72.785 19.0247 72.489 18.0807 72.489 16.9127C72.489 15.6327 72.785 14.4247 73.377 13.2887C73.969 12.1367 74.753 11.2167 75.729 10.5287C76.721 9.82466 77.769 9.47266 78.873 9.47266C79.225 9.47266 79.457 9.54466 79.569 9.68866C79.697 9.81666 79.801 10.0567 79.881 10.4087C80.185 10.3447 80.537 10.3127 80.937 10.3127C81.337 10.3127 81.617 10.3767 81.777 10.5047C81.953 10.6167 82.041 10.8487 82.041 11.2007C82.041 11.3927 82.033 11.5447 82.017 11.6567C81.953 12.1527 81.753 13.4087 81.417 15.4247C81.353 15.8087 81.281 16.2327 81.201 16.6967C81.137 17.1447 81.065 17.6247 80.985 18.1367C82.217 17.1767 83.401 16.3287 84.537 15.5927C84.745 15.4647 84.929 15.4007 85.089 15.4007ZM76.617 18.4007C76.985 18.4007 77.337 18.1767 77.673 17.7287C78.009 17.2807 78.249 16.6407 78.393 15.8087L79.161 11.7047C78.505 11.7207 77.897 11.9767 77.337 12.4727C76.777 12.9527 76.329 13.5927 75.993 14.3927C75.657 15.1927 75.489 16.0407 75.489 16.9367C75.489 17.4327 75.585 17.8007 75.777 18.0407C75.985 18.2807 76.265 18.4007 76.617 18.4007ZM75.489 27.7051C77.817 27.7691 78.024 23.2051 78.024 22.2051C76.6561 22.9078 75.3921 23.8196 74.524 25.7051C74.2646 26.2687 74.3567 27.0369 74.668 27.3771C74.9012 27.6317 75.2491 27.6985 75.489 27.7051Z" fill="#FE576B"/>
<path d="M62.5987 20.8255C61.9907 20.8255 61.5587 20.5055 61.3027 19.8655C61.0627 19.2255 60.9427 18.2015 60.9427 16.7935C60.9427 14.7135 61.2387 12.7375 61.8307 10.8655C61.9747 10.4015 62.2067 10.0655 62.5267 9.85748C62.8627 9.63348 63.3267 9.52148 63.9187 9.52148C64.2387 9.52148 64.4627 9.56148 64.5907 9.64148C64.7187 9.72148 64.7827 9.87348 64.7827 10.0975C64.7827 10.3535 64.6627 10.9295 64.4227 11.8255C64.2627 12.4655 64.1347 13.0255 64.0387 13.5055C63.9427 13.9855 63.8627 14.5775 63.7987 15.2815C64.3267 13.9055 64.9187 12.7855 65.5747 11.9215C66.2307 11.0575 66.8707 10.4415 67.4947 10.0735C68.1347 9.70548 68.7187 9.52148 69.2467 9.52148C70.2867 9.52148 70.8068 10.0415 70.8068 11.0815C70.8068 11.7055 70.6308 12.8335 70.2788 14.4655C69.9748 15.8575 69.8228 16.7775 69.8228 17.2255C69.8228 17.8655 70.0547 18.1855 70.5187 18.1855C70.8387 18.1855 71.2147 17.9935 71.6467 17.6095C72.0947 17.2095 72.6867 16.5695 73.4227 15.6895C73.6147 15.4655 73.8308 15.3535 74.0708 15.3535C74.2788 15.3535 74.4387 15.4495 74.5507 15.6415C74.6787 15.8335 74.7427 16.0975 74.7427 16.4335C74.7427 17.0735 74.5907 17.5695 74.2867 17.9215C73.5987 18.7695 72.8547 19.4655 72.0547 20.0095C71.2707 20.5535 70.3747 20.8255 69.3667 20.8255C68.5507 20.8255 67.9347 20.5935 67.5187 20.1295C67.1027 19.6495 66.8947 18.9615 66.8947 18.0655C66.8947 17.6175 67.0067 16.8175 67.2307 15.6655C67.4387 14.6575 67.5428 13.9615 67.5428 13.5775C67.5428 13.3215 67.4548 13.1935 67.2788 13.1935C67.0708 13.1935 66.7748 13.4655 66.3908 14.0095C66.0228 14.5375 65.6388 15.2415 65.2388 16.1215C64.8548 17.0015 64.5427 17.9295 64.3027 18.9055C64.1267 19.6575 63.9187 20.1695 63.6787 20.4415C63.4547 20.6975 63.0947 20.8255 62.5987 20.8255Z" fill="#FE576B"/>
<path d="M58.1326 7.93736C57.4606 7.93736 56.9566 7.78536 56.6206 7.48136C56.2846 7.16136 56.1166 6.72136 56.1166 6.16136C56.1166 5.60136 56.3326 5.13736 56.7646 4.76936C57.2126 4.38536 57.7646 4.19336 58.4206 4.19336C59.0126 4.19336 59.4926 4.33736 59.8606 4.62536C60.2286 4.91336 60.4126 5.32136 60.4126 5.84936C60.4126 6.48936 60.2046 7.00136 59.7886 7.38536C59.3726 7.75336 58.8206 7.93736 58.1326 7.93736ZM57.9406 20.8254C56.9006 20.8254 56.1406 20.4574 55.6606 19.7214C55.1966 18.9854 54.9646 18.0094 54.9646 16.7934C54.9646 16.0734 55.0526 15.1534 55.2286 14.0334C55.4206 12.8974 55.6606 11.8414 55.9486 10.8654C56.0926 10.3534 56.2846 10.0014 56.5246 9.80936C56.7646 9.61736 57.1486 9.52136 57.6766 9.52136C58.4926 9.52136 58.9006 9.79336 58.9006 10.3374C58.9006 10.7374 58.7486 11.6654 58.4446 13.1214C58.0606 14.8814 57.8686 16.0734 57.8686 16.6974C57.8686 17.1774 57.9326 17.5454 58.0606 17.8014C58.1886 18.0574 58.4046 18.1854 58.7086 18.1854C58.9966 18.1854 59.3566 17.9854 59.7886 17.5854C60.2206 17.1854 60.7966 16.5534 61.5166 15.6894C61.7086 15.4654 61.9246 15.3534 62.1646 15.3534C62.3726 15.3534 62.5326 15.4494 62.6446 15.6414C62.7726 15.8334 62.8366 16.0974 62.8366 16.4334C62.8366 17.0734 62.6846 17.5694 62.3806 17.9214C60.7966 19.8574 59.3166 20.8254 57.9406 20.8254Z" fill="#FE576B"/>
<path d="M38.8331 20.8255C38.2251 20.8255 37.7931 20.5055 37.5371 19.8655C37.2971 19.2255 37.1771 18.2015 37.1771 16.7935C37.1771 14.7135 37.4731 12.7375 38.0651 10.8655C38.2091 10.4015 38.4411 10.0655 38.7611 9.85748C39.0971 9.63348 39.5611 9.52148 40.1531 9.52148C40.4731 9.52148 40.6971 9.56148 40.8251 9.64148C40.9531 9.72148 41.0171 9.87348 41.0171 10.0975C41.0171 10.3535 40.8971 10.9295 40.6571 11.8255C40.4971 12.4655 40.3691 13.0255 40.2731 13.5055C40.1771 13.9695 40.0971 14.5535 40.0331 15.2575C40.4651 14.0095 40.9771 12.9535 41.5691 12.0895C42.1771 11.2255 42.7931 10.5855 43.4171 10.1695C44.0571 9.73748 44.6571 9.52148 45.2171 9.52148C45.7771 9.52148 46.1691 9.64948 46.3931 9.90548C46.6331 10.1615 46.7531 10.5535 46.7531 11.0815C46.7531 11.5935 46.6011 12.5215 46.2971 13.8655C46.1691 14.4415 46.0811 14.8735 46.0331 15.1615C46.8331 13.1935 47.7211 11.7615 48.6971 10.8655C49.6731 9.96948 50.5851 9.52148 51.4331 9.52148C52.4731 9.52148 52.9931 10.0415 52.9931 11.0815C52.9931 11.7055 52.8171 12.8335 52.4651 14.4655C52.1611 15.8575 52.0091 16.7775 52.0091 17.2255C52.0091 17.8655 52.2411 18.1855 52.7051 18.1855C53.0251 18.1855 53.4011 17.9935 53.8331 17.6095C54.2811 17.2095 54.8731 16.5695 55.6091 15.6895C55.8011 15.4655 56.0171 15.3535 56.2571 15.3535C56.4651 15.3535 56.6251 15.4495 56.7371 15.6415C56.8651 15.8335 56.9291 16.0975 56.9291 16.4335C56.9291 17.0735 56.7771 17.5695 56.4731 17.9215C55.7851 18.7695 55.0411 19.4655 54.2411 20.0095C53.4571 20.5535 52.5611 20.8255 51.5531 20.8255C50.7371 20.8255 50.1211 20.5935 49.7051 20.1295C49.2891 19.6495 49.0811 18.9615 49.0811 18.0655C49.0811 17.6175 49.1931 16.8175 49.4171 15.6655C49.6251 14.6575 49.7291 13.9615 49.7291 13.5775C49.7291 13.3215 49.6411 13.1935 49.4651 13.1935C49.2571 13.1935 48.9611 13.4655 48.5771 14.0095C48.1931 14.5375 47.8091 15.2415 47.4251 16.1215C47.0411 17.0015 46.7291 17.9295 46.4891 18.9055C46.3131 19.6735 46.1051 20.1855 45.8651 20.4415C45.6411 20.6975 45.2731 20.8255 44.7611 20.8255C44.2331 20.8255 43.8331 20.5775 43.5611 20.0815C43.3051 19.5695 43.1771 18.9535 43.1771 18.2335C43.1771 17.6255 43.2571 16.7455 43.4171 15.5935C43.5451 14.5695 43.6091 13.8975 43.6091 13.5775C43.6091 13.3215 43.5211 13.1935 43.3451 13.1935C43.1051 13.1935 42.8011 13.4815 42.4331 14.0575C42.0651 14.6335 41.7051 15.3695 41.3531 16.2655C41.0171 17.1615 40.7451 18.0415 40.5371 18.9055C40.3611 19.6575 40.1531 20.1695 39.9131 20.4415C39.6891 20.6975 39.3291 20.8255 38.8331 20.8255Z" fill="#FE576B"/>
<path d="M28.8077 20.8247C27.8157 20.8247 27.0237 20.4647 26.4317 19.7447C25.8397 19.0247 25.5437 18.0807 25.5437 16.9127C25.5437 15.6327 25.8397 14.4247 26.4317 13.2887C27.0237 12.1367 27.8077 11.2167 28.7837 10.5287C29.7757 9.82466 30.8237 9.47266 31.9277 9.47266C32.2797 9.47266 32.5117 9.54466 32.6237 9.68866C32.7517 9.81666 32.8557 10.0567 32.9357 10.4087C33.2717 10.3447 33.6237 10.3127 33.9917 10.3127C34.7757 10.3127 35.1677 10.5927 35.1677 11.1527C35.1677 11.4887 35.0477 12.2887 34.8077 13.5527C34.4397 15.3927 34.2557 16.6727 34.2557 17.3927C34.2557 17.6327 34.3117 17.8247 34.4237 17.9687C34.5517 18.1127 34.7117 18.1847 34.9037 18.1847C35.2077 18.1847 35.5757 17.9927 36.0077 17.6087C36.4397 17.2087 37.0237 16.5687 37.7597 15.6887C37.9517 15.4647 38.1677 15.3527 38.4077 15.3527C38.6157 15.3527 38.7757 15.4487 38.8877 15.6407C39.0157 15.8327 39.0797 16.0967 39.0797 16.4327C39.0797 17.0727 38.9277 17.5687 38.6237 17.9207C37.9677 18.7367 37.2717 19.4247 36.5357 19.9847C35.7997 20.5447 35.0877 20.8247 34.3997 20.8247C33.8717 20.8247 33.3837 20.6487 32.9357 20.2967C32.5037 19.9287 32.1757 19.4327 31.9517 18.8087C31.1197 20.1527 30.0717 20.8247 28.8077 20.8247ZM29.6717 18.4007C30.0237 18.4007 30.3597 18.1927 30.6797 17.7767C30.9997 17.3607 31.2317 16.8087 31.3757 16.1207L32.2637 11.7047C31.5917 11.7207 30.9677 11.9767 30.3917 12.4727C29.8317 12.9527 29.3837 13.5927 29.0477 14.3927C28.7117 15.1927 28.5437 16.0407 28.5437 16.9367C28.5437 17.4327 28.6397 17.8007 28.8317 18.0407C29.0397 18.2807 29.3197 18.4007 29.6717 18.4007Z" fill="#FE576B"/>
<path d="M27.3579 15.3525C27.5659 15.3525 27.7259 15.4485 27.8379 15.6405C27.9659 15.8325 28.0299 16.0965 28.0299 16.4325C28.0299 17.0725 27.8779 17.5685 27.5739 17.9205C26.8859 18.7685 26.1339 19.4645 25.3179 20.0085C24.5179 20.5525 23.6059 20.8245 22.5819 20.8245C21.1739 20.8245 20.1259 20.1845 19.4379 18.9045C18.7659 17.6245 18.4299 15.9685 18.4299 13.9365C18.4299 11.9845 18.528 10.7011 19.024 8.20508C19.5081 5.84522 21.0428 1.14453 23.9339 1.14453C24.7019 1.14453 25.3019 1.50453 25.7339 2.22453C26.1819 2.92853 26.4059 3.94453 26.4059 5.27253C26.4059 6.4012 25.7262 8.31308 25.024 9.70508C24.3219 11.0971 22.832 13.2411 21.024 15.7051C21.136 16.3611 21.8219 17.4885 22.0779 17.7765C22.3339 18.0485 22.6699 18.1845 23.0859 18.1845C23.7419 18.1845 24.3179 18.0005 24.8139 17.6325C25.3099 17.2485 25.9419 16.6005 26.7099 15.6885C26.9019 15.4645 27.1179 15.3525 27.3579 15.3525ZM24.024 3.70508C23.2342 3.70508 22.024 6.20508 21.524 7.70508C21.024 9.20508 20.1902 11.5211 20.524 13.9365C21.66 12.0645 23.024 9.20508 23.524 8.20508C24.024 7.20508 24.8139 3.70508 24.024 3.70508Z" fill="#FE576B"/>
<path d="M19.312 0.808953C19.76 0.872953 20.064 1.00895 20.224 1.21695C20.4 1.42495 20.488 1.69695 20.488 2.03295C20.488 3.13695 19.896 3.64895 18.712 3.56895C17.1642 3.43628 15.684 3.23295 14.112 3.23295H13.032C12.84 5.60095 12.64 7.76095 12.432 9.71295L15.56 9.64095C16.152 9.64095 16.544 9.74495 16.736 9.95295C16.944 10.161 17.048 10.441 17.048 10.793C17.048 11.337 16.888 11.769 16.568 12.089C16.248 12.393 15.792 12.545 15.2 12.545H12.096L11.952 13.577C11.616 16.217 10.896 18.097 9.792 19.217C8.704 20.337 7.2 20.897 5.28 20.897C4.192 20.897 3.192 20.665 2.28 20.201C1.368 19.721 0.696 19.145 0.264 18.473C0.088 18.201 0 17.873 0 17.489C0 17.105 0.088 16.769 0.264 16.481C0.456 16.193 0.688 16.049 0.96 16.049C1.152 16.049 1.336 16.113 1.512 16.241C1.704 16.369 1.944 16.617 2.232 16.985C3 17.993 3.952 18.497 5.088 18.497C6 18.497 6.76 18.129 7.368 17.393C7.992 16.641 8.392 15.465 8.568 13.865L8.712 12.545H7.56C7.192 12.545 6.872 12.441 6.6 12.233C6.344 12.025 6.216 11.729 6.216 11.345C6.216 10.849 6.344 10.473 6.6 10.217C6.856 9.94495 7.232 9.80895 7.728 9.80895C8.176 9.80895 8.616 9.80095 9.048 9.78495C9.24 8.02495 9.448 5.88895 9.672 3.37695C7.944 3.53695 6.728 3.81695 6.024 4.21695C5.32 4.61695 4.968 5.20895 4.968 5.99295C4.968 6.53695 5.128 7.05695 5.448 7.55295C5.544 7.69695 5.592 7.84095 5.592 7.98495C5.592 8.27295 5.432 8.52895 5.112 8.75295C4.792 8.96095 4.432 9.06495 4.032 9.06495C3.6 9.06495 3.232 8.93695 2.928 8.68095C2.736 8.52095 2.552 8.19295 2.376 7.69695C2.2 7.20095 2.112 6.64895 2.112 6.04095C2.112 4.05695 3.128 2.61695 5.16 1.72095C7.208 0.824954 10.192 0.376953 14.112 0.376953C16.832 0.376953 17.232 0.520953 19.312 0.808953Z" fill="#FE576B"/>
</svg>
