<svg width="500" height="500" viewBox="0 0 500 500" fill="none" xmlns="http://www.w3.org/2000/svg">
<rect width="500" height="500" rx="250" fill="url(#paint0_radial_322_1772)"/>
<path d="M229 249.5L250.731 223L272.045 227.141L293.776 231.281L313 249.5V269.789L276.224 276L229 269.789V249.5Z" fill="#F5E7EA"/>
<mask id="path-3-outside-1_322_1772" maskUnits="userSpaceOnUse" x="143" y="78" width="214" height="343" fill="black">
<rect fill="white" x="143" y="78" width="214" height="343"/>
<path fill-rule="evenodd" clip-rule="evenodd" d="M238.757 110.458C247.526 119.464 252.121 132.859 249.265 149.697C247.792 158.379 245.339 165.09 241.857 170.924C238.41 176.699 234.107 181.353 229.354 186.004C227.724 187.599 226.023 189.212 224.249 190.894C215.706 198.996 205.471 208.704 193.282 225.766C185.974 235.995 181.946 244.836 181.07 252.027C180.247 258.787 182.155 264.205 187.471 268.691C192.453 272.896 200.741 276.523 213.44 278.847C209.688 270.4 207.097 261.95 207.226 253.244C207.421 239.987 213.82 227.383 228.24 213.82C241.528 201.321 259.655 199.87 276.337 203.827C293.042 207.79 309.412 217.368 320.694 228.728C331.582 239.69 339.583 254.376 334.364 267.99C331.743 274.827 326.099 280.326 317.857 284.315C309.67 288.277 298.617 290.918 284.389 292.032C264.921 293.555 248.243 293.888 234.135 293.134C247.087 316.943 263.945 348.041 263.945 395.027V401H232.305C229.021 401 226.358 398.326 226.358 395.027C226.358 391.728 229.021 389.054 232.305 389.054H251.953C250.623 348.474 235.904 321.36 223.599 298.694C222.348 296.39 221.122 294.132 219.938 291.91C219.143 291.812 218.359 291.709 217.584 291.602C200.666 289.266 188.027 284.764 179.819 277.837C171.227 270.587 167.984 261.086 169.264 250.577C170.491 240.497 175.82 229.717 183.618 218.801C196.521 200.739 207.604 190.238 216.191 182.101C217.914 180.469 219.537 178.932 221.053 177.448C225.578 173.019 229.006 169.221 231.655 164.782C234.269 160.403 236.276 155.137 237.539 147.691C239.823 134.23 236.092 124.807 230.253 118.81C224.254 112.648 215.518 109.576 207.05 109.981C204.381 110.109 201.906 111.54 199.466 114.787C196.968 118.113 194.94 122.826 193.366 128.134C190.233 138.7 189.385 149.901 189.198 152.438L189.085 153.965L188.257 155.247L188.257 155.247L188.256 155.248L188.249 155.259L188.214 155.314C188.181 155.365 188.13 155.445 188.063 155.552C187.928 155.765 187.726 156.087 187.47 156.503C186.957 157.335 186.226 158.544 185.369 160.026C183.649 163.001 181.457 167.016 179.509 171.255C177.533 175.554 175.943 179.8 175.252 183.298C174.847 185.349 174.852 186.617 174.942 187.353C175.66 187.153 176.675 186.755 177.989 186.042C181.719 184.015 186.364 180.26 190.688 175.581C195.005 170.909 198.639 165.707 200.646 161.019C202.757 156.086 202.495 153.175 201.647 151.733C199.976 148.893 200.913 145.23 203.741 143.552C206.569 141.874 210.216 142.815 211.887 145.655C215.677 152.098 214.172 159.665 211.573 165.737C208.869 172.054 204.324 178.385 199.406 183.707C194.496 189.022 188.85 193.724 183.647 196.55C181.082 197.943 178.233 199.098 175.396 199.396C172.463 199.704 168.807 199.115 166.162 196.044C162.308 191.569 162.711 185.398 163.585 180.973C164.544 176.116 166.581 170.879 168.709 166.249C170.864 161.558 173.251 157.196 175.084 154.026C176.004 152.435 176.793 151.129 177.356 150.216C177.389 150.162 177.421 150.11 177.452 150.06C177.811 145.732 178.899 135.071 181.966 124.725C183.722 118.802 186.249 112.547 189.971 107.592C193.751 102.56 199.161 98.3989 206.484 98.0487C217.998 97.498 230.15 101.617 238.757 110.458ZM227.52 280.697C242.247 281.992 260.727 281.901 283.465 280.122C296.851 279.074 306.307 276.644 312.693 273.553C319.025 270.488 322.017 266.951 323.264 263.697C325.783 257.128 322.448 247.409 312.273 237.165C302.493 227.317 288.071 218.885 273.603 215.453C259.11 212.015 245.679 213.784 236.371 222.539C223.357 234.78 219.25 244.515 219.119 253.421C218.997 261.66 222.209 270.19 227.52 280.697Z"/>
</mask>
<path d="M249.265 149.697L268.983 153.042V153.042L249.265 149.697ZM238.757 110.458L253.088 96.5064V96.5064L238.757 110.458ZM241.857 170.924L259.031 181.174L259.031 181.174L241.857 170.924ZM229.354 186.004L243.342 200.298L243.342 200.298L229.354 186.004ZM224.249 190.894L238.012 205.406L238.012 205.406L224.249 190.894ZM193.282 225.766L177.008 214.14L193.282 225.766ZM181.07 252.027L161.217 249.609L161.217 249.609L181.07 252.027ZM187.471 268.691L174.572 283.976L174.572 283.976L187.471 268.691ZM213.44 278.847L209.841 298.52L247.09 305.335L231.718 270.728L213.44 278.847ZM207.226 253.244L187.228 252.949L207.226 253.244ZM228.24 213.82L214.537 199.252L228.24 213.82ZM276.337 203.827L280.953 184.367H280.953L276.337 203.827ZM320.694 228.728L306.504 242.822V242.822L320.694 228.728ZM334.364 267.99L353.039 275.149L353.039 275.149L334.364 267.99ZM317.857 284.315L326.57 302.317L317.857 284.315ZM284.389 292.032L285.95 311.971H285.95L284.389 292.032ZM234.135 293.134L235.201 273.163L199.464 271.254L216.566 302.692L234.135 293.134ZM263.945 401V421H283.945V401H263.945ZM251.953 389.054V409.054H272.619L271.942 388.399L251.953 389.054ZM223.599 298.694L206.022 308.236L206.022 308.236L223.599 298.694ZM219.938 291.91L237.587 282.502L232.7 273.334L222.39 272.061L219.938 291.91ZM217.584 291.602L214.848 311.414L214.848 311.414L217.584 291.602ZM179.819 277.837L166.92 293.122L166.92 293.122L179.819 277.837ZM169.264 250.577L189.117 252.994L169.264 250.577ZM183.618 218.801L167.344 207.175H167.344L183.618 218.801ZM216.191 182.101L202.435 167.584L202.435 167.584L216.191 182.101ZM221.053 177.448L235.042 191.742L235.042 191.742L221.053 177.448ZM231.655 164.782L248.829 175.032L248.829 175.032L231.655 164.782ZM237.539 147.691L217.821 144.346V144.346L237.539 147.691ZM230.253 118.81L244.583 104.858V104.858L230.253 118.81ZM207.05 109.981L206.094 90.0043L207.05 109.981ZM199.466 114.787L215.456 126.8L215.456 126.8L199.466 114.787ZM193.366 128.134L174.191 122.449L174.191 122.449L193.366 128.134ZM189.198 152.438L169.252 150.967L169.252 150.967L189.198 152.438ZM189.085 153.965L205.885 164.817L208.656 160.528L209.031 155.436L189.085 153.965ZM188.257 155.247L205.016 166.162L205.036 166.131L205.056 166.099L188.257 155.247ZM188.257 155.247L171.498 144.331L171.441 144.419L171.385 144.508L188.257 155.247ZM188.256 155.248L205.072 166.075L205.1 166.032L205.128 165.988L188.256 155.248ZM188.249 155.259L171.433 144.432L171.421 144.451L171.409 144.47L188.249 155.259ZM188.214 155.314L171.374 144.525L171.368 144.534L171.362 144.543L188.214 155.314ZM188.063 155.552L171.156 144.867L171.156 144.867L188.063 155.552ZM187.47 156.503L170.443 146.011L170.443 146.011L187.47 156.503ZM185.369 160.026L168.056 150.014L168.056 150.014L185.369 160.026ZM179.509 171.255L161.335 162.904L161.335 162.904L179.509 171.255ZM175.252 183.298L194.873 187.173V187.173L175.252 183.298ZM174.942 187.353L155.093 189.8L157.936 212.869L180.323 206.616L174.942 187.353ZM177.989 186.042L187.535 203.616L177.989 186.042ZM190.688 175.581L205.377 189.154L190.688 175.581ZM200.646 161.019L182.259 153.148L182.259 153.148L200.646 161.019ZM201.647 151.733L184.409 161.875L201.647 151.733ZM203.741 143.552L213.949 160.751L213.949 160.751L203.741 143.552ZM211.887 145.655L194.649 155.797L194.649 155.797L211.887 145.655ZM211.573 165.737L193.187 157.867L193.187 157.867L211.573 165.737ZM199.406 183.707L184.717 170.134L184.717 170.134L199.406 183.707ZM183.647 196.55L174.1 178.975H174.1L183.647 196.55ZM175.396 199.396L173.306 179.505H173.306L175.396 199.396ZM166.162 196.044L151.007 209.095L151.007 209.095L166.162 196.044ZM163.585 180.973L143.964 177.098L163.585 180.973ZM168.709 166.249L186.882 174.6L186.882 174.6L168.709 166.249ZM175.084 154.026L192.398 164.038L192.398 164.038L175.084 154.026ZM177.356 150.216L160.329 139.724L160.329 139.724L177.356 150.216ZM177.452 150.06L194.465 160.576L196.988 156.494L197.384 151.712L177.452 150.06ZM181.966 124.725L162.791 119.04L162.791 119.04L181.966 124.725ZM189.971 107.592L173.98 95.5795L173.98 95.5795L189.971 107.592ZM206.484 98.0487L205.528 78.0715L206.484 98.0487ZM283.465 280.122L285.026 300.061H285.026L283.465 280.122ZM227.52 280.697L209.672 289.721L214.69 299.647L225.769 300.62L227.52 280.697ZM312.693 273.553L321.407 291.555L321.407 291.555L312.693 273.553ZM323.264 263.697L304.59 256.538L304.59 256.538L323.264 263.697ZM312.273 237.165L326.464 223.071L312.273 237.165ZM273.603 215.453L268.986 234.913L273.603 215.453ZM236.371 222.539L222.668 207.971L222.668 207.971L236.371 222.539ZM219.119 253.421L239.117 253.715L219.119 253.421ZM268.983 153.042C272.792 130.588 266.77 110.56 253.088 96.5064L224.427 124.409C228.281 128.368 231.45 135.129 229.546 146.353L268.983 153.042ZM259.031 181.174C263.965 172.906 267.161 163.782 268.983 153.042L229.546 146.353C228.423 152.976 226.713 157.273 224.683 160.674L259.031 181.174ZM243.342 200.298C248.481 195.269 254.251 189.183 259.031 181.174L224.683 160.674C222.57 164.215 219.732 167.437 215.365 171.71L243.342 200.298ZM238.012 205.406C239.763 203.745 241.58 202.022 243.342 200.298L215.365 171.71C213.867 173.176 212.283 174.679 210.487 176.383L238.012 205.406ZM209.556 237.392C220.608 221.921 229.723 213.267 238.012 205.406L210.487 176.383C201.69 184.726 190.334 195.487 177.008 214.14L209.556 237.392ZM200.924 254.444C201.213 252.072 203.069 246.471 209.556 237.392L177.008 214.14C168.878 225.519 162.679 237.6 161.217 249.609L200.924 254.444ZM200.37 253.407C200.109 253.187 200.112 253.143 200.234 253.31C200.367 253.491 200.544 253.788 200.687 254.169C200.829 254.546 200.874 254.833 200.885 254.949C200.894 255.046 200.868 254.9 200.924 254.444L161.217 249.609C160.5 255.501 160.855 261.891 163.249 268.254C165.664 274.672 169.703 279.866 174.572 283.976L200.37 253.407ZM217.039 259.173C206.011 257.156 201.592 254.438 200.37 253.407L174.572 283.976C183.314 291.354 195.471 295.891 209.841 298.52L217.039 259.173ZM187.228 252.949C187.039 265.79 190.87 277.303 195.162 286.966L231.718 270.728C228.506 263.497 227.156 258.111 227.224 253.539L187.228 252.949ZM214.537 199.252C197.76 215.032 187.53 232.432 187.228 252.949L227.224 253.539C227.312 247.543 229.88 239.734 241.943 228.388L214.537 199.252ZM280.953 184.367C260.594 179.538 234.535 180.442 214.537 199.252L241.943 228.388C248.521 222.201 258.715 220.202 271.72 223.287L280.953 184.367ZM334.885 214.634C321.083 200.738 301.436 189.226 280.953 184.367L271.72 223.287C284.649 226.354 297.741 233.999 306.504 242.822L334.885 214.634ZM353.039 275.149C362.778 249.744 346.922 226.754 334.885 214.634L306.504 242.822C310.69 247.036 313.585 251.27 315.011 254.82C316.356 258.169 316.051 259.889 315.69 260.83L353.039 275.149ZM326.57 302.317C338.024 296.773 348.118 287.986 353.039 275.149L315.69 260.83C315.368 261.669 314.173 263.878 309.144 266.313L326.57 302.317ZM285.95 311.971C301.599 310.746 315.348 307.749 326.57 302.317L309.144 266.313C303.992 268.806 295.634 271.091 282.829 272.093L285.95 311.971ZM233.069 313.106C248.277 313.918 265.865 313.543 285.95 311.971L282.829 272.093C263.977 273.568 248.209 273.857 235.201 273.163L233.069 313.106ZM283.945 395.027C283.945 342.696 264.889 307.814 251.704 283.577L216.566 302.692C229.285 326.071 243.945 353.387 243.945 395.027H283.945ZM283.945 401V395.027H243.945V401H283.945ZM206.358 395.027C206.358 409.289 217.893 421 232.305 421V381C240.149 381 246.358 387.362 246.358 395.027H206.358ZM232.305 369.054C217.893 369.054 206.358 380.764 206.358 395.027H246.358C246.358 402.692 240.149 409.054 232.305 409.054V369.054ZM251.953 369.054H232.305V409.054H251.953V369.054ZM206.022 308.236C218.176 330.625 230.799 354.17 231.964 389.709L271.942 388.399C270.447 342.779 253.631 312.095 241.176 289.152L206.022 308.236ZM202.289 301.318C203.515 303.618 204.778 305.944 206.022 308.236L241.176 289.152C239.919 286.835 238.729 284.645 237.587 282.502L202.289 301.318ZM214.848 311.414C215.719 311.534 216.599 311.649 217.486 311.759L222.39 272.061C221.687 271.974 220.998 271.884 220.32 271.79L214.848 311.414ZM166.92 293.122C179.347 303.609 196.387 308.865 214.848 311.414L220.32 271.79C204.945 269.667 196.708 265.92 192.718 262.553L166.92 293.122ZM149.411 248.159C147.372 264.899 152.825 281.227 166.92 293.122L192.718 262.553C189.63 259.947 188.596 257.273 189.117 252.994L149.411 248.159ZM167.344 207.175C158.722 219.244 151.224 233.263 149.411 248.159L189.117 252.994C189.758 247.731 192.917 240.19 199.892 230.427L167.344 207.175ZM202.435 167.584C193.595 175.96 181.387 187.518 167.344 207.175L199.892 230.427C211.655 213.961 221.614 204.515 229.947 196.619L202.435 167.584ZM207.065 163.153C205.685 164.504 204.184 165.927 202.435 167.584L229.947 196.619C231.645 195.011 233.389 193.359 235.042 191.742L207.065 163.153ZM214.481 154.532C213.168 156.733 211.21 159.097 207.065 163.153L235.042 191.742C239.946 186.942 244.844 181.709 248.829 175.032L214.481 154.532ZM217.821 144.346C216.907 149.733 215.643 152.585 214.481 154.533L248.829 175.032C252.894 168.22 255.645 160.541 257.258 151.036L217.821 144.346ZM215.923 132.761C216.621 133.478 217.286 134.466 217.721 135.98C218.165 137.522 218.528 140.177 217.821 144.346L257.258 151.036C260.497 131.941 255.323 115.89 244.583 104.858L215.923 132.761ZM208.005 129.959C211.313 129.8 214.297 131.092 215.923 132.761L244.583 104.858C234.21 94.2036 219.723 89.3525 206.094 90.0043L208.005 129.959ZM215.456 126.8C215.614 126.59 215.097 127.353 213.71 128.213C212.15 129.18 210.15 129.856 208.005 129.959L206.094 90.0043C195.629 90.5048 188.206 96.4775 183.475 102.775L215.456 126.8ZM212.541 133.818C213.812 129.531 215.008 127.396 215.456 126.8L183.475 102.775C178.927 108.829 176.067 116.12 174.191 122.449L212.541 133.818ZM209.144 153.909C209.321 151.512 210.066 142.166 212.541 133.818L174.191 122.449C170.4 135.235 169.449 148.291 169.252 150.967L209.144 153.909ZM209.031 155.436L209.144 153.909L169.252 150.967L169.14 152.493L209.031 155.436ZM205.056 166.099L205.885 164.817L172.286 143.112L171.458 144.394L205.056 166.099ZM205.015 166.163L205.016 166.162L171.499 144.331L171.498 144.331L205.015 166.163ZM205.128 165.988L205.129 165.987L171.385 144.508L171.384 144.508L205.128 165.988ZM205.065 166.086L205.072 166.075L171.44 144.421L171.433 144.432L205.065 166.086ZM205.054 166.103L205.089 166.048L171.409 144.47L171.374 144.525L205.054 166.103ZM204.97 166.236C205.018 166.159 205.051 166.108 205.066 166.085L171.362 144.543C171.312 144.622 171.242 144.731 171.156 144.867L204.97 166.236ZM204.497 166.995C204.711 166.647 204.873 166.39 204.97 166.236L171.156 144.867C170.983 145.141 170.742 145.526 170.443 146.011L204.497 166.995ZM202.683 170.037C203.433 168.74 204.067 167.693 204.497 166.995L170.443 146.011C169.847 146.978 169.019 148.349 168.056 150.014L202.683 170.037ZM197.682 179.605C199.283 176.121 201.151 172.687 202.683 170.037L168.056 150.014C166.147 153.314 163.63 157.91 161.335 162.904L197.682 179.605ZM194.873 187.173C195.116 185.943 195.959 183.355 197.682 179.605L161.335 162.904C159.107 167.754 156.77 173.656 155.631 179.422L194.873 187.173ZM194.792 184.906C195.026 186.8 194.762 187.733 194.873 187.173L155.631 179.422C154.931 182.965 154.678 186.434 155.093 189.8L194.792 184.906ZM168.442 168.467C168.311 168.539 168.326 168.522 168.486 168.455C168.635 168.393 168.998 168.248 169.562 168.091L180.323 206.616C182.81 205.921 185.232 204.868 187.535 203.616L168.442 168.467ZM175.998 162.008C172.658 165.623 169.695 167.787 168.442 168.467L187.535 203.616C193.743 200.244 200.07 194.897 205.377 189.154L175.998 162.008ZM182.259 153.148C181.418 155.114 179.307 158.428 175.998 162.008L205.377 189.154C210.703 183.39 215.86 176.299 219.032 168.889L182.259 153.148ZM184.409 161.875C182.317 158.319 182.212 155.193 182.293 153.858C182.376 152.491 182.681 152.165 182.259 153.148L219.032 168.889C222.011 161.931 224.603 151.311 218.884 141.591L184.409 161.875ZM193.534 126.353C181.199 133.673 177.172 149.574 184.409 161.875L218.884 141.591C222.78 148.212 220.628 156.787 213.949 160.751L193.534 126.353ZM229.125 135.514C221.858 123.162 205.92 119.002 193.534 126.353L213.949 160.751C207.218 164.746 198.574 162.469 194.649 155.797L229.125 135.514ZM229.96 173.607C233.35 165.687 237.843 150.333 229.125 135.514L194.649 155.797C194.414 155.397 194.275 154.992 194.211 154.682C194.154 154.401 194.182 154.324 194.169 154.523C194.155 154.731 194.103 155.137 193.938 155.751C193.773 156.361 193.526 157.074 193.187 157.867L229.96 173.607ZM214.096 197.28C220.023 190.866 226.09 182.646 229.96 173.607L193.187 157.867C191.648 161.462 188.626 165.904 184.717 170.134L214.096 197.28ZM193.194 214.124C200.874 209.952 208.201 203.659 214.096 197.28L184.717 170.134C180.79 174.385 176.826 177.495 174.1 178.975L193.194 214.124ZM177.486 219.286C184.01 218.601 189.508 216.126 193.194 214.124L174.1 178.975C173.485 179.31 173.066 179.487 172.843 179.568C172.741 179.605 172.725 179.605 172.79 179.589C172.855 179.573 173.031 179.534 173.306 179.505L177.486 219.286ZM151.007 209.095C159.396 218.837 170.638 220.006 177.486 219.286L173.306 179.505C173.911 179.442 175.042 179.41 176.517 179.861C178.164 180.364 179.941 181.395 181.317 182.993L151.007 209.095ZM143.964 177.098C142.935 182.306 140.62 197.033 151.007 209.095L181.317 182.993C181.982 183.765 182.419 184.571 182.681 185.252C182.929 185.898 182.985 186.339 182.997 186.453C183.008 186.561 182.989 186.47 183.015 186.141C183.04 185.818 183.099 185.39 183.206 184.848L143.964 177.098ZM150.536 157.898C148.152 163.084 145.37 169.976 143.964 177.098L183.206 184.848C183.718 182.256 185.01 178.674 186.882 174.6L150.536 157.898ZM157.77 144.014C155.749 147.509 153.038 152.453 150.536 157.898L186.882 174.6C188.691 170.663 190.753 166.882 192.398 164.038L157.77 144.014ZM160.329 139.724C159.683 140.772 158.797 142.239 157.77 144.014L192.398 164.038C193.211 162.63 193.903 161.486 194.383 160.708L160.329 139.724ZM160.44 139.544C160.404 139.602 160.367 139.662 160.329 139.724L194.383 160.708C194.411 160.663 194.438 160.619 194.465 160.576L160.44 139.544ZM162.791 119.04C159.133 131.379 157.913 143.668 157.521 148.408L197.384 151.712C197.709 147.796 198.665 138.763 201.141 130.409L162.791 119.04ZM173.98 95.5795C168.211 103.26 164.851 112.09 162.791 119.04L201.141 130.409C202.593 125.513 204.287 121.834 205.961 119.605L173.98 95.5795ZM205.528 78.0715C190.314 78.7992 179.975 87.5991 173.98 95.5795L205.961 119.605C206.73 118.582 207.294 118.153 207.5 118.024C207.585 117.971 207.587 117.981 207.52 118.003C207.444 118.028 207.401 118.028 207.439 118.026L205.528 78.0715ZM253.088 96.5064C240.097 83.1634 222.189 77.2747 205.528 78.0715L207.439 118.026C213.807 117.721 220.202 120.07 224.427 124.409L253.088 96.5064ZM281.905 260.183C259.872 261.907 242.561 261.942 229.271 260.774L225.769 300.62C241.933 302.041 261.582 301.895 285.026 300.061L281.905 260.183ZM303.98 255.551C300.63 257.172 293.87 259.246 281.905 260.183L285.026 300.061C299.833 298.902 311.985 296.115 321.407 291.555L303.98 255.551ZM304.59 256.538C304.806 255.974 305.059 255.502 305.306 255.129C305.552 254.759 305.753 254.544 305.832 254.465C305.982 254.318 305.565 254.784 303.98 255.551L321.407 291.555C330.984 286.919 338.402 280.081 341.939 270.856L304.59 256.538ZM298.083 251.258C301.826 255.027 303.394 257.807 303.929 259.159C304.482 260.56 303.545 259.263 304.59 256.538L341.939 270.856C345.502 261.562 344.157 252.121 341.129 244.459C338.083 236.749 332.896 229.547 326.464 223.071L298.083 251.258ZM268.986 234.913C279.678 237.45 290.822 243.948 298.083 251.258L326.464 223.071C314.163 210.686 296.464 200.321 278.219 195.993L268.986 234.913ZM250.073 237.108C252.707 234.631 258.236 232.363 268.986 234.913L278.219 195.993C259.984 191.668 238.651 192.938 222.668 207.971L250.073 237.108ZM239.117 253.715C239.141 252.052 239.437 247.112 250.073 237.108L222.668 207.971C207.277 222.448 199.359 236.979 199.121 253.126L239.117 253.715ZM245.369 271.674C240.251 261.549 239.072 256.757 239.117 253.715L199.121 253.126C198.923 266.562 204.167 278.831 209.672 289.721L245.369 271.674ZM232.305 421H263.945V381H232.305V421Z" fill="#F5E7EA" mask="url(#path-3-outside-1_322_1772)"/>
<path fill-rule="evenodd" clip-rule="evenodd" d="M238.757 110.458C247.526 119.464 252.121 132.859 249.265 149.697C247.792 158.379 245.339 165.09 241.857 170.924C238.41 176.699 234.107 181.353 229.354 186.004C227.724 187.599 226.023 189.212 224.249 190.894C215.706 198.996 205.471 208.704 193.282 225.766C185.974 235.995 181.946 244.836 181.07 252.027C180.247 258.787 182.155 264.205 187.471 268.691C192.453 272.896 200.741 276.523 213.44 278.847C209.688 270.4 207.097 261.95 207.226 253.244C207.421 239.987 213.82 227.383 228.24 213.82C241.528 201.321 259.655 199.87 276.337 203.827C293.042 207.79 309.412 217.368 320.694 228.728C331.582 239.69 339.583 254.376 334.364 267.99C331.743 274.827 326.099 280.326 317.857 284.315C309.67 288.277 298.617 290.918 284.389 292.032C264.921 293.555 248.243 293.888 234.135 293.134C247.087 316.943 263.945 348.041 263.945 395.027V401H232.305C229.021 401 226.358 398.326 226.358 395.027C226.358 391.728 229.021 389.054 232.305 389.054H251.953C250.623 348.474 235.904 321.36 223.599 298.694C222.348 296.39 221.122 294.132 219.938 291.91C219.143 291.812 218.359 291.709 217.584 291.602C200.666 289.266 188.027 284.764 179.819 277.837C171.227 270.587 167.984 261.086 169.264 250.577C170.491 240.497 175.82 229.717 183.618 218.801C196.521 200.739 207.604 190.238 216.191 182.101C217.914 180.469 219.537 178.932 221.053 177.448C225.578 173.019 229.006 169.221 231.655 164.782C234.269 160.403 236.276 155.137 237.539 147.691C239.823 134.23 236.092 124.807 230.253 118.81C224.254 112.648 215.518 109.576 207.05 109.981C204.381 110.109 201.906 111.54 199.466 114.787C196.968 118.113 194.94 122.826 193.366 128.134C190.233 138.7 189.385 149.901 189.198 152.438L189.085 153.965L188.257 155.247L188.256 155.248L188.249 155.259L188.214 155.314C188.181 155.365 188.13 155.445 188.063 155.552C187.928 155.765 187.726 156.087 187.47 156.503C186.957 157.335 186.226 158.544 185.369 160.026C183.649 163.001 181.457 167.016 179.509 171.255C177.533 175.554 175.943 179.799 175.252 183.298C174.847 185.349 174.852 186.617 174.942 187.353C175.66 187.153 176.675 186.755 177.989 186.042C181.719 184.015 186.364 180.26 190.688 175.581C195.005 170.909 198.639 165.707 200.646 161.019C202.757 156.086 202.495 153.175 201.647 151.733C199.976 148.893 200.913 145.23 203.741 143.552C206.569 141.874 210.216 142.815 211.887 145.655C215.677 152.098 214.172 159.665 211.573 165.737C208.869 172.054 204.324 178.385 199.406 183.707C194.496 189.022 188.85 193.724 183.647 196.55C181.082 197.943 178.233 199.098 175.396 199.396C172.463 199.704 168.807 199.115 166.162 196.044C162.308 191.569 162.711 185.398 163.585 180.973C164.544 176.116 166.581 170.879 168.709 166.249C170.864 161.558 173.251 157.196 175.084 154.026C176.004 152.435 176.793 151.129 177.356 150.216C177.389 150.162 177.421 150.11 177.452 150.06C177.811 145.732 178.899 135.071 181.966 124.725C183.722 118.802 186.249 112.547 189.971 107.592C193.751 102.56 199.161 98.3989 206.484 98.0487C217.998 97.498 230.15 101.617 238.757 110.458ZM227.52 280.697C242.247 281.992 260.727 281.901 283.465 280.122C296.851 279.074 306.307 276.644 312.693 273.553C319.025 270.488 322.017 266.95 323.264 263.697C325.783 257.128 322.448 247.409 312.273 237.165C302.493 227.317 288.071 218.885 273.603 215.453C259.11 212.015 245.679 213.784 236.371 222.539C223.357 234.78 219.25 244.515 219.119 253.421C218.997 261.66 222.209 270.19 227.52 280.697Z" fill="url(#paint1_radial_322_1772)"/>
<defs>
<radialGradient id="paint0_radial_322_1772" cx="0" cy="0" r="1" gradientUnits="userSpaceOnUse" gradientTransform="translate(377.5 529) rotate(-126.3) scale(764.338)">
<stop offset="0.302132" stop-color="#FE576B"/>
<stop offset="0.902925" stop-color="#F3A2AB"/>
</radialGradient>
<radialGradient id="paint1_radial_322_1772" cx="0" cy="0" r="1" gradientUnits="userSpaceOnUse" gradientTransform="translate(291.287 401) rotate(-109.961) scale(375.796 214.639)">
<stop offset="0.359288" stop-color="#FE576B"/>
<stop offset="1" stop-color="#F3A2AB"/>
</radialGradient>
</defs>
</svg>
